<svg xmlns="http://www.w3.org/2000/svg" viewBox="0 0 90 110" width="90" height="110" role="img" aria-label="Confused penguin">
  <ellipse cx="45" cy="58" rx="34" ry="44" fill="#2b3242"/>
  <ellipse cx="45" cy="64" rx="23" ry="34" fill="#f4f7ff"/>
  <path d="M11 54c-7 6-9 18-4 26 5-6 8-16 8-26z" fill="#2b3242"/>
  <path d="M79 54c7 6 9 18 4 26-5-6-8-16-8-26z" fill="#2b3242"/>
  <path d="M45 40l11 8-11 8-11-8z" fill="#f4791f"/>
  <g fill="#12161f">
    <circle cx="34" cy="34" r="4.6"/>
    <circle cx="56" cy="34" r="4.6"/>
  </g>
  <g fill="#ffffff">
    <circle cx="35.4" cy="32.6" r="1.6"/>
    <circle cx="57.4" cy="32.6" r="1.6"/>
  </g>
  <g fill="#f4791f">
    <path d="M28 98h16l-4 8H26z"/>
    <path d="M46 98h16l2 8H50z"/>
  </g>
  <text x="66" y="18" font-family="Inter, sans-serif" font-size="22" font-weight="900" fill="#ffd23f">?</text>
</svg>
